<svg width="300" height="60" viewBox="0 0 300 60" fill="none" xmlns="http://www.w3.org/2000/svg">
  <!-- GroeimetAI Text Logo -->
  <g transform="skewX(-8)">
    <!-- G -->
    <path d="M 10 45 Q 5 45 5 40 L 5 20 Q 5 15 10 15 L 20 15 Q 30 15 35 18 Q 40 21 40 27 Q 40 31 36 33 Q 34 34 32 34 L 30 34 L 35 36 Q 38 38 38 42 Q 38 46 34 48 Q 30 50 22 50 L 10 50 Q 5 50 5 45 Z M 15 22 L 15 29 L 20 29 Q 24 29 26 28 Q 28 27 28 25 Q 28 23 26 22 Q 24 21 20 21 L 15 21 Z M 28 40 Q 28 38 26 37 Q 24 36 20 36 L 15 36 L 15 40 Q 15 43 18 43 L 22 43 Q 26 43 27 42 Q 28 41 28 40 Z" fill="#FFA500" stroke="#FFA500" stroke-width="2"/>
    
    <!-- r -->
    <path d="M 45 32 L 45 50 L 35 50 L 35 20 L 45 20 L 45 24 Q 48 20 53 20 L 55 20 L 55 28 L 53 28 Q 48 28 45 32 Z" fill="#FFA500"/>
    
    <!-- o -->
    <path d="M 60 35 Q 60 28 65 24 Q 70 20 78 20 Q 86 20 91 24 Q 96 28 96 35 Q 96 42 91 46 Q 86 50 78 50 Q 70 50 65 46 Q 60 42 60 35 Z M 70 35 Q 70 39 72 41 Q 74 42 78 42 Q 82 42 84 41 Q 86 39 86 35 Q 86 31 84 29 Q 82 28 78 28 Q 74 28 72 29 Q 70 31 70 35 Z" fill="#FFA500"/>
    
    <!-- e -->
    <path d="M 102 35 Q 102 28 107 24 Q 112 20 120 20 Q 128 20 133 24 Q 138 28 138 35 L 138 37 L 112 37 Q 112 40 114 41 Q 116 42 120 42 Q 124 42 126 41 Q 128 40 128 38 L 138 38 Q 138 42 133 46 Q 128 50 120 50 Q 112 50 107 46 Q 102 42 102 35 Z M 112 31 L 128 31 Q 128 29 126 28 Q 124 27 120 27 Q 116 27 114 28 Q 112 29 112 31 Z" fill="#FFA500"/>
    
    <!-- i -->
    <path d="M 144 20 L 154 20 L 154 50 L 144 50 Z M 144 10 L 154 10 L 154 16 L 144 16 Z" fill="#FFA500"/>
    
    <!-- m -->
    <path d="M 160 20 L 170 20 L 170 24 Q 173 20 178 20 Q 183 20 186 24 Q 189 20 194 20 Q 202 20 205 24 Q 208 28 208 34 L 208 50 L 198 50 L 198 34 Q 198 31 197 30 Q 196 28 193 28 Q 190 28 188 31 L 188 50 L 178 50 L 178 34 Q 178 31 177 30 Q 176 28 173 28 Q 170 28 168 31 L 168 50 L 160 50 Z" fill="#FFA500"/>
    
    <!-- e -->
    <path d="M 214 35 Q 214 28 219 24 Q 224 20 232 20 Q 240 20 245 24 Q 250 28 250 35 L 250 37 L 224 37 Q 224 40 226 41 Q 228 42 232 42 Q 236 42 238 41 Q 240 40 240 38 L 250 38 Q 250 42 245 46 Q 240 50 232 50 Q 224 50 219 46 Q 214 42 214 35 Z M 224 31 L 240 31 Q 240 29 238 28 Q 236 27 232 27 Q 228 27 226 28 Q 224 29 224 31 Z" fill="#FFA500"/>
    
    <!-- t -->
    <path d="M 256 10 L 266 10 L 266 20 L 272 20 L 272 28 L 266 28 L 266 40 Q 266 42 268 42 L 272 42 L 272 50 L 268 50 Q 260 50 258 48 Q 256 46 256 40 L 256 28 L 252 28 L 252 20 L 256 20 Z" fill="#FFA500"/>
    
    <!-- A -->
    <path d="M 285 50 L 275 50 L 290 10 L 305 10 L 320 50 L 310 50 L 307 40 L 288 40 L 285 50 Z M 291 32 L 304 32 L 297.5 18 Z" fill="#000000"/>
    
    <!-- I -->
    <path d="M 326 10 L 346 10 L 346 18 L 340 18 L 340 42 L 346 42 L 346 50 L 326 50 L 326 42 L 332 42 L 332 18 L 326 18 Z" fill="#000000"/>
  </g>
</svg>